<svg xmlns="http://www.w3.org/2000/svg" width="128" height="128" viewBox="0 0 24 24"><path fill="#FFF" d="M0 0h24v24H0Z"/><path fill="#FF7D67" d="M9.916 13.065C10.564 6.582 8.542 4.428 8 3.5 6.462.87 4.022 2.393 3.468 4.942c-.855 3.934-.406 10.235.288 14.491.732 4.495 2.48 4.294 2.954 1.865 2.558.574 2.523-1.396 3.206-8.233Z"/><path fill="#FFAB65" d="M19.916 12.937C20.564 6.453 18.542 4.3 18 3.372c-1.538-2.63-3.978-1.107-4.532 1.442-.855 3.934-.406 10.235.288 14.491.732 4.495 2.48 4.294 2.954 1.865 2.558.574 2.523-1.396 3.206-8.233Z"/><path fill-rule="evenodd" d="M5 1.5A2.5 2.5 0 0 0 2.5 4v16A2.5 2.5 0 0 0 5 22.5h3a2.5 2.5 0 0 0 2.5-2.5V4A2.5 2.5 0 0 0 8 1.5H5ZM3.5 4A1.5 1.5 0 0 1 5 2.5h3A1.5 1.5 0 0 1 9.5 4v16A1.5 1.5 0 0 1 8 21.5H5A1.5 1.5 0 0 1 3.5 20V4ZM16 1.5A2.5 2.5 0 0 0 13.5 4v16a2.5 2.5 0 0 0 2.5 2.5h3a2.5 2.5 0 0 0 2.5-2.5V4A2.5 2.5 0 0 0 19 1.5h-3ZM14.5 4A1.5 1.5 0 0 1 16 2.5h3A1.5 1.5 0 0 1 20.5 4v16a1.5 1.5 0 0 1-1.5 1.5h-3a1.5 1.5 0 0 1-1.5-1.5V4Z"/></svg>